<svg width="26" height="23" viewBox="0 0 26 23" fill="none" xmlns="http://www.w3.org/2000/svg">
<path d="M8.125 3.28571C9.02383 3.28571 9.75 2.55156 9.75 1.64286C9.75 0.734152 9.02383 0 8.125 0H4.875C2.18359 0 0 2.20759 0 4.92857V18.0714C0 20.7924 2.18359 23 4.875 23H8.125C9.02383 23 9.75 22.2659 9.75 21.3571C9.75 20.4484 9.02383 19.7143 8.125 19.7143H4.875C3.97617 19.7143 3.25 18.9801 3.25 18.0714V4.92857C3.25 4.01987 3.97617 3.28571 4.875 3.28571H8.125ZM25.6191 12.3933C25.8629 12.1623 26 11.8388 26 11.5C26 11.1612 25.8629 10.8377 25.6191 10.6067L18.3066 3.62455C17.9512 3.28571 17.4332 3.1933 16.9863 3.38839C16.5395 3.58348 16.25 4.03013 16.25 4.51786V8.21429H9.75C8.85117 8.21429 8.125 8.94844 8.125 9.85714V13.1429C8.125 14.0516 8.85117 14.7857 9.75 14.7857H16.25V18.4821C16.25 18.975 16.5395 19.4165 16.9863 19.6116C17.4332 19.8067 17.9512 19.7143 18.3066 19.3754L25.6191 12.3933Z" fill="white"/>
</svg>
