<svg width="26" height="31" viewBox="0 0 26 31" fill="none" xmlns="http://www.w3.org/2000/svg">
<path d="M18.7481 13.5705C17.2991 15.2561 15.0284 15.4848 13.0002 15.4848C10.9719 15.4848 8.70121 15.2577 7.25226 13.5705C6.03382 12.1531 5.63865 9.96145 6.0458 6.87974C6.6146 2.57114 9.21463 0 13.0002 0C16.7857 0 19.3857 2.57114 19.9545 6.8767C20.3617 9.96146 19.9665 12.1531 18.7481 13.5705Z" fill="#647788"/>
<path d="M13.0002 17.6642C18.9846 17.6642 24.0813 21.4196 25.3941 26.7935H25.3926C25.6515 27.8497 25.4375 28.9272 24.8028 29.7502C24.1921 30.5428 23.2461 31 22.2088 31H3.79154C2.75422 31 1.80822 30.5428 1.1975 29.7502C0.564333 28.9272 0.348788 27.8482 0.606246 26.7935C1.91898 21.4196 7.01576 17.6642 13.0002 17.6642Z" fill="#647788"/>
</svg>
