<svg width="61" height="50" viewBox="0 0 61 50" fill="none" xmlns="http://www.w3.org/2000/svg">
<path d="M61 5.93091C58.7568 6.93316 56.347 7.61035 53.8136 7.91645C56.4276 6.33938 58.3832 3.85725 59.3156 0.933223C56.8597 2.40406 54.1718 3.43937 51.3688 3.99414C49.4839 1.9649 46.9873 0.619888 44.2666 0.167923C41.5458 -0.284042 38.7532 0.182327 36.3223 1.49462C33.8914 2.80692 31.9582 4.89172 30.8228 7.42535C29.6874 9.95899 29.4134 12.7997 30.0433 15.5064C25.067 15.2545 20.1989 13.9504 15.7549 11.6787C11.3108 9.40698 7.39017 6.21848 4.24738 2.32012C3.17277 4.18917 2.55488 6.35619 2.55488 8.66407C2.55368 10.7417 3.0611 12.7875 4.03213 14.6199C5.00316 16.4524 6.40777 18.0149 8.12133 19.1687C6.13406 19.1049 4.19062 18.5635 2.45279 17.5895V17.752C2.45259 20.6659 3.45226 23.4902 5.28218 25.7456C7.1121 28.001 9.65956 29.5485 12.4923 30.1257C10.6488 30.6288 8.71596 30.7029 6.83987 30.3424C7.6391 32.8497 9.19593 35.0422 11.2924 36.613C13.3889 38.1838 15.9201 39.0543 18.5316 39.1026C14.0984 42.6116 8.62341 44.5149 2.9874 44.5066C1.98904 44.5069 0.991529 44.4481 0 44.3305C5.72087 48.0393 12.3804 50.0076 19.1817 50C42.2051 50 54.7915 30.7731 54.7915 14.0979C54.7915 13.5561 54.778 13.0089 54.7539 12.4672C57.2021 10.682 59.3153 8.47146 60.9946 5.93904L61 5.93091Z" fill="white"/>
</svg>
